# xmcd CD database file
# Copyright (C) 1993-1998 Ti Kan
# 
# Track frame offsets:
# 185
# 19365
# 34927
# 54370
# 74582
# 112680
# 132777
# 153900
# 174817
# 194550
# 
# Disc length: 2878 seconds
# 
# Revision: 0
# Processed by: cddbd v1.4b41PL1 Copyright (c) Steve Scherf et al.
# Submitted via: SuperSonic v3.0
# 
DISCID=7f0b3c0a
DTITLE=Frank White - Dog it
DYEAR=1900
DGENRE=
TTITLE0=Open up your heart
TTITLE1=Mohair Sam
TTITLE2=Lonely Avenue
TTITLE3=Baby hold on
TTITLE4=She's gone
TTITLE5=Dog it
TTITLE6=Tupelo
TTITLE7=We had a good love
TTITLE8=Keep me hanging on
TTITLE9=Tupelo revisited
EXTD=
EXTT0=
EXTT1=
EXTT2=
EXTT3=
EXTT4=
EXTT5=
EXTT6=
EXTT7=
EXTT8=
EXTT9=
PLAYORDER=
